<svg xmlns="http://www.w3.org/2000/svg" version="1.1" xmlns:xlink="http://www.w3.org/1999/xlink" xmlns:svgjs="http://svgjs.dev/svgjs" width="128" height="128" viewBox="0 0 128 128"><g transform="matrix(0.5,0,0,0.5,31.928817451205504,12.333870967741937)"><svg viewBox="0 0 96 155" data-background-color="#000000" preserveAspectRatio="xMidYMid meet" height="206" width="128" xmlns="http://www.w3.org/2000/svg" xmlns:xlink="http://www.w3.org/1999/xlink"><g id="tight-bounds" transform="matrix(1,0,0,1,0.10677382319174455,0.25)"><svg viewBox="0 0 95.78645235361653 154.5" height="154.5" width="95.78645235361653"><g><svg viewBox="0 0 95.78645235361653 154.5" height="154.5" width="95.78645235361653"><g><svg viewBox="0 0 95.78645235361653 154.5" height="154.5" width="95.78645235361653"><g id="textblocktransform"><svg viewBox="0 0 95.78645235361653 154.5" height="154.5" width="95.78645235361653" id="textblock"><g><svg viewBox="0 0 95.78645235361653 154.5" height="154.5" width="95.78645235361653"><g transform="matrix(1,0,0,1,0,0)"><svg width="95.78645235361653" viewBox="0.75 -36.6 27 43.550000000000004" height="154.5" data-palette-color="#ffdc00"><path d="M9.45 6.95L9.45 6.95Q7.2 6.95 5.2 5.95 3.2 4.95 1.98 3.2 0.75 1.45 0.75-0.75L0.75-0.75 1.35-1.05Q3.7 0.7 6.05 0.7L6.05 0.7Q7.4 0.7 8.6-0.05 9.8-0.8 10.73-2.7 11.65-4.6 12.18-7.95 12.7-11.3 12.7-16.55L12.7-16.55Q12.7-21 13.28-23.95 13.85-26.9 15.65-29.35L15.65-29.35Q15-29.8 14.13-30.18 13.25-30.55 12.3-30.55L12.3-30.55Q10.7-30.55 9.68-29.38 8.65-28.2 8.65-26.4L8.65-26.4Q8.65-25.45 8.97-24.4 9.3-23.35 10-22.3L10-22.3Q7-22.3 5.03-23.38 3.05-24.45 2.08-26.1 1.1-27.75 1.1-29.55L1.1-29.55Q1.1-31.35 1.98-32.95 2.85-34.55 4.6-35.58 6.35-36.6 8.85-36.6L8.85-36.6Q10.8-36.6 13.2-35.83 15.6-35.05 18.45-33.25L18.45-33.25Q20.2-35.3 21.6-35.8 23-36.3 23.8-36.3L23.8-36.3Q25.85-36.3 26.8-34.93 27.75-33.55 27.75-31.65L27.75-31.65Q27.75-30.4 27.28-29.2 26.8-28 25.8-27.23 24.8-26.45 23.2-26.45L23.2-26.45Q22.7-26.45 22.13-26.55 21.55-26.65 20.85-26.9L20.85-26.9Q20.5-26 20.35-24.8 20.2-23.6 20.2-22.2L20.2-22.2Q20.2-19.45 20.5-16.32 20.8-13.2 20.8-10.2L20.8-10.2Q20.8-5.5 19.8-2.23 18.8 1.05 17.15 3.08 15.5 5.1 13.5 6.03 11.5 6.95 9.45 6.95Z" opacity="1" transform="matrix(1,0,0,1,0,0)" fill="#ffdc00" class="wordmark-text-0" data-fill-palette-color="primary" id="text-0"></path></svg></g></svg></g></svg></g></svg></g></svg></g><defs></defs></svg><rect width="95.78645235361653" height="154.5" fill="none" stroke="none" visibility="hidden"></rect></g></svg></g></svg>