<svg xmlns="http://www.w3.org/2000/svg" version="1.1" xmlns:xlink="http://www.w3.org/1999/xlink" xmlns:svgjs="http://svgjs.dev/svgjs" width="1500" height="1500" viewBox="0 0 1500 1500"><rect width="1500" height="1500" fill="#000000"></rect><g transform="matrix(0.6666666666666666,0,0,0.6666666666666666,249.39393939393938,655.6000486296974)"><svg viewBox="0 0 396 74" data-background-color="#000000" preserveAspectRatio="xMidYMid meet" height="280" width="1500" xmlns="http://www.w3.org/2000/svg" xmlns:xlink="http://www.w3.org/1999/xlink"><g id="tight-bounds" transform="matrix(1,0,0,1,0.2400000000000091,0.4228378646556905)"><svg viewBox="0 0 395.52 73.15432427068862" height="73.15432427068862" width="395.52"><g><svg viewBox="0 0 395.52 73.15432427068862" height="73.15432427068862" width="395.52"><g><svg viewBox="0 0 395.52 73.15432427068862" height="73.15432427068862" width="395.52"><g id="textblocktransform"><svg viewBox="0 0 395.52 73.15432427068862" height="73.15432427068862" width="395.52" id="textblock"><g><svg viewBox="0 0 395.52 73.15432427068862" height="73.15432427068862" width="395.52"><g transform="matrix(1,0,0,1,0,0)"><svg width="395.52" viewBox="0.75 -36.6 251.93 46.6" height="73.15432427068862" data-palette-color="#ffdc00"><path d="M9.45 6.95L9.45 6.95Q7.2 6.95 5.2 5.95 3.2 4.95 1.98 3.2 0.75 1.45 0.75-0.75L0.75-0.75 1.35-1.05Q3.7 0.7 6.05 0.7L6.05 0.7Q7.4 0.7 8.6-0.05 9.8-0.8 10.73-2.7 11.65-4.6 12.18-7.95 12.7-11.3 12.7-16.55L12.7-16.55Q12.7-21 13.28-23.95 13.85-26.9 15.65-29.35L15.65-29.35Q15-29.8 14.13-30.18 13.25-30.55 12.3-30.55L12.3-30.55Q10.7-30.55 9.68-29.38 8.65-28.2 8.65-26.4L8.65-26.4Q8.65-25.45 8.97-24.4 9.3-23.35 10-22.3L10-22.3Q7-22.3 5.03-23.38 3.05-24.45 2.08-26.1 1.1-27.75 1.1-29.55L1.1-29.55Q1.1-31.35 1.98-32.95 2.85-34.55 4.6-35.58 6.35-36.6 8.85-36.6L8.85-36.6Q10.8-36.6 13.2-35.83 15.6-35.05 18.45-33.25L18.45-33.25Q20.2-35.3 21.6-35.8 23-36.3 23.8-36.3L23.8-36.3Q25.85-36.3 26.8-34.93 27.75-33.55 27.75-31.65L27.75-31.65Q27.75-30.4 27.28-29.2 26.8-28 25.8-27.23 24.8-26.45 23.2-26.45L23.2-26.45Q22.7-26.45 22.13-26.55 21.55-26.65 20.85-26.9L20.85-26.9Q20.5-26 20.35-24.8 20.2-23.6 20.2-22.2L20.2-22.2Q20.2-19.45 20.5-16.32 20.8-13.2 20.8-10.2L20.8-10.2Q20.8-5.5 19.8-2.23 18.8 1.05 17.15 3.08 15.5 5.1 13.5 6.03 11.5 6.95 9.45 6.95ZM46.3 0.25L46.3 0.25Q44.55 0.25 43.25-0.9 41.95-2.05 41.95-4.65L41.95-4.65Q41.95-4.9 41.95-5.15 41.95-5.4 42-5.65L42-5.65Q40.5-2.65 38.62-1.23 36.75 0.2 34.85 0.2L34.85 0.2Q33.1 0.2 31.55-1.03 30-2.25 29.05-4.65 28.1-7.05 28.1-10.45L28.1-10.45Q28.1-13.95 29.07-16.7 30.05-19.45 31.65-21.35 33.25-23.25 35.15-24.23 37.05-25.2 38.85-25.2L38.85-25.2Q40.85-25.2 42.45-23.98 44.05-22.75 44.65-20.1L44.65-20.1Q44.8-20.95 44.87-21.65 44.95-22.35 44.95-22.6L44.95-22.6Q45-23.95 46.32-24.6 47.65-25.25 49.25-25.25L49.25-25.25Q50.65-25.25 51.9-24.7 53.15-24.15 53.6-22.85L53.6-22.85 53.7-22.55Q53.1-21.2 52.5-19.3 51.9-17.4 51.4-15.33 50.9-13.25 50.6-11.28 50.3-9.3 50.3-7.8L50.3-7.8Q50.3-6.15 50.65-5.53 51-4.9 51.5-4.9L51.5-4.9Q52.35-4.9 53.05-6.1L53.05-6.1 53.45-5.9Q53.45-4.2 52.35-2.8 51.25-1.4 49.6-0.58 47.95 0.25 46.3 0.25ZM38.15-6.1L38.15-6.1Q39.45-6.1 41.02-8.43 42.6-10.75 43.75-15.1L43.75-15.1Q43.85-15.55 43.95-15.98 44.05-16.4 44.1-16.8L44.1-16.8Q43.3-18.65 42.42-19.43 41.55-20.2 40.7-20.2L40.7-20.2Q39.45-20.2 38.37-18.88 37.3-17.55 36.62-15.55 35.95-13.55 35.95-11.55L35.95-11.55Q35.95-8.8 36.57-7.45 37.2-6.1 38.15-6.1ZM61.7 0.2L61.7 0.2Q59.9 0.2 58.47-1.28 57.05-2.75 57.05-5.35L57.05-5.35Q57.05-6.65 57.4-8.33 57.75-10 58.17-11.75 58.59-13.5 58.95-15.05 59.3-16.6 59.3-17.65L59.3-17.65Q59.3-18.5 58.9-19.03 58.5-19.55 57.84-19.55L57.84-19.55Q57-19.55 56-18.55L56-18.55 55.7-18.75Q55.65-19.55 56.05-20.65 56.45-21.75 57.34-22.78 58.25-23.8 59.7-24.5 61.15-25.2 63.15-25.2L63.15-25.2Q65.4-25.2 66.52-23.63 67.65-22.05 67.65-19.85L67.65-19.85Q67.65-19.6 67.65-19.33 67.65-19.05 67.59-18.8L67.59-18.8Q68.55-20.35 69.82-21.8 71.09-23.25 72.72-24.23 74.34-25.2 76.25-25.2L76.25-25.2Q78.7-25.2 79.65-23.63 80.59-22.05 80.59-20.05L80.59-20.05Q80.59-19.65 80.57-19.28 80.55-18.9 80.5-18.55L80.5-18.55Q81.55-20.1 82.82-21.63 84.09-23.15 85.75-24.18 87.4-25.2 89.55-25.2L89.55-25.2Q92.19-25.2 93.17-23.65 94.15-22.1 94.15-20L94.15-20Q94.15-18.15 93.7-15.78 93.25-13.4 92.8-11.1 92.34-8.8 92.34-7.2L92.34-7.2Q92.34-6.25 92.62-5.65 92.9-5.05 93.55-5.05L93.55-5.05Q94.09-5.05 94.57-5.38 95.05-5.7 95.25-6.15L95.25-6.15 95.65-6Q95.65-4.15 94.59-2.75 93.55-1.35 91.94-0.58 90.34 0.2 88.75 0.2L88.75 0.2Q86.8 0.2 85.32-1.1 83.84-2.4 83.84-5.4L83.84-5.4Q83.84-7.25 84.32-9.4 84.8-11.55 85.27-13.58 85.75-15.6 85.75-16.9L85.75-16.9Q85.75-18.75 84.45-18.75L84.45-18.75Q83.5-18.75 82.57-17.98 81.65-17.2 80.92-15.93 80.2-14.65 79.75-13.25 79.3-11.85 79.3-10.55L79.3-10.55Q79.3-9.35 79.57-7.93 79.84-6.5 79.84-5.2L79.84-5.2Q79.84-2.6 78.4-1.2 76.95 0.2 75 0.2L75 0.2Q73.2 0.2 71.77-1 70.34-2.2 70.34-4.6L70.34-4.6Q70.34-5.7 70.65-7.28 70.95-8.85 71.32-10.58 71.7-12.3 72-13.9 72.3-15.5 72.3-16.7L72.3-16.7Q72.3-17.65 72.02-18.2 71.75-18.75 70.95-18.75L70.95-18.75Q69.8-18.75 68.75-17.6 67.7-16.45 66.95-14.83 66.2-13.2 65.95-11.7L65.95-11.7Q65.9-11.35 65.87-11.15 65.84-10.95 65.84-10.95L65.84-10.95Q65.84-9.4 66.2-8.13 66.55-6.85 66.55-5.5L66.55-5.5Q66.55-3.05 65.07-1.43 63.59 0.2 61.7 0.2ZM103.44 0.2L103.44 0.2Q101.64 0.2 100.22-1.28 98.79-2.75 98.79-5.35L98.79-5.35Q98.79-6.65 99.14-8.33 99.49-10 99.92-11.75 100.34-13.5 100.69-15.05 101.04-16.6 101.04-17.65L101.04-17.65Q101.04-18.5 100.64-19.03 100.24-19.55 99.59-19.55L99.59-19.55Q98.74-19.55 97.74-18.55L97.74-18.55 97.44-18.75Q97.39-19.55 97.79-20.65 98.19-21.75 99.09-22.78 99.99-23.8 101.44-24.5 102.89-25.2 104.89-25.2L104.89-25.2Q107.14-25.2 108.27-23.63 109.39-22.05 109.39-19.85L109.39-19.85Q109.39-19.6 109.39-19.33 109.39-19.05 109.34-18.8L109.34-18.8Q110.29-20.35 111.57-21.8 112.84-23.25 114.47-24.23 116.09-25.2 117.99-25.2L117.99-25.2Q120.44-25.2 121.39-23.63 122.34-22.05 122.34-20.05L122.34-20.05Q122.34-19.65 122.32-19.28 122.29-18.9 122.24-18.55L122.24-18.55Q123.29-20.1 124.57-21.63 125.84-23.15 127.49-24.18 129.14-25.2 131.29-25.2L131.29-25.2Q133.94-25.2 134.92-23.65 135.89-22.1 135.89-20L135.89-20Q135.89-18.15 135.44-15.78 134.99-13.4 134.54-11.1 134.09-8.8 134.09-7.2L134.09-7.2Q134.09-6.25 134.37-5.65 134.64-5.05 135.29-5.05L135.29-5.05Q135.84-5.05 136.32-5.38 136.79-5.7 136.99-6.15L136.99-6.15 137.39-6Q137.39-4.15 136.34-2.75 135.29-1.35 133.69-0.58 132.09 0.2 130.49 0.2L130.49 0.2Q128.54 0.2 127.07-1.1 125.59-2.4 125.59-5.4L125.59-5.4Q125.59-7.25 126.07-9.4 126.54-11.55 127.02-13.58 127.49-15.6 127.49-16.9L127.49-16.9Q127.49-18.75 126.19-18.75L126.19-18.75Q125.24-18.75 124.32-17.98 123.39-17.2 122.67-15.93 121.94-14.65 121.49-13.25 121.04-11.85 121.04-10.55L121.04-10.55Q121.04-9.35 121.32-7.93 121.59-6.5 121.59-5.2L121.59-5.2Q121.59-2.6 120.14-1.2 118.69 0.2 116.74 0.2L116.74 0.2Q114.94 0.2 113.52-1 112.09-2.2 112.09-4.6L112.09-4.6Q112.09-5.7 112.39-7.28 112.69-8.85 113.07-10.58 113.44-12.3 113.74-13.9 114.04-15.5 114.04-16.7L114.04-16.7Q114.04-17.65 113.77-18.2 113.49-18.75 112.69-18.75L112.69-18.75Q111.54-18.75 110.49-17.6 109.44-16.45 108.69-14.83 107.94-13.2 107.69-11.7L107.69-11.7Q107.64-11.35 107.62-11.15 107.59-10.95 107.59-10.95L107.59-10.95Q107.59-9.4 107.94-8.13 108.29-6.85 108.29-5.5L108.29-5.5Q108.29-3.05 106.82-1.43 105.34 0.2 103.44 0.2ZM145.19 0.2L145.19 0.2Q143.39 0.2 141.97-1.28 140.54-2.75 140.54-5.35L140.54-5.35Q140.54-6.65 140.89-8.33 141.24-10 141.67-11.75 142.09-13.5 142.44-15.05 142.79-16.6 142.79-17.65L142.79-17.65Q142.79-18.5 142.39-19.03 141.99-19.55 141.34-19.55L141.34-19.55Q140.49-19.55 139.49-18.55L139.49-18.55 139.19-18.75Q139.14-19.55 139.54-20.65 139.94-21.75 140.84-22.78 141.74-23.8 143.19-24.5 144.64-25.2 146.64-25.2L146.64-25.2Q148.89-25.2 150.02-23.63 151.14-22.05 151.14-19.85L151.14-19.85Q151.14-19.6 151.14-19.33 151.14-19.05 151.09-18.8L151.09-18.8Q152.04-20.35 153.32-21.8 154.59-23.25 156.22-24.23 157.84-25.2 159.74-25.2L159.74-25.2Q162.19-25.2 163.14-23.63 164.09-22.05 164.09-20.05L164.09-20.05Q164.09-19.65 164.07-19.28 164.04-18.9 163.99-18.55L163.99-18.55Q165.04-20.1 166.32-21.63 167.59-23.15 169.24-24.18 170.89-25.2 173.04-25.2L173.04-25.2Q175.69-25.2 176.67-23.65 177.64-22.1 177.64-20L177.64-20Q177.64-18.15 177.19-15.78 176.74-13.4 176.29-11.1 175.84-8.8 175.84-7.2L175.84-7.2Q175.84-6.25 176.12-5.65 176.39-5.05 177.04-5.05L177.04-5.05Q177.59-5.05 178.07-5.38 178.54-5.7 178.74-6.15L178.74-6.15 179.14-6Q179.14-4.15 178.09-2.75 177.04-1.35 175.44-0.58 173.84 0.2 172.24 0.2L172.24 0.2Q170.29 0.2 168.82-1.1 167.34-2.4 167.34-5.4L167.34-5.4Q167.34-7.25 167.82-9.4 168.29-11.55 168.77-13.58 169.24-15.6 169.24-16.9L169.24-16.9Q169.24-18.75 167.94-18.75L167.94-18.75Q166.99-18.75 166.07-17.98 165.14-17.2 164.42-15.93 163.69-14.65 163.24-13.25 162.79-11.85 162.79-10.55L162.79-10.55Q162.79-9.35 163.07-7.93 163.34-6.5 163.34-5.2L163.34-5.2Q163.34-2.6 161.89-1.2 160.44 0.2 158.49 0.2L158.49 0.2Q156.69 0.2 155.27-1 153.84-2.2 153.84-4.6L153.84-4.6Q153.84-5.7 154.14-7.28 154.44-8.85 154.82-10.58 155.19-12.3 155.49-13.9 155.79-15.5 155.79-16.7L155.79-16.7Q155.79-17.65 155.52-18.2 155.24-18.75 154.44-18.75L154.44-18.75Q153.29-18.75 152.24-17.6 151.19-16.45 150.44-14.83 149.69-13.2 149.44-11.7L149.44-11.7Q149.39-11.35 149.37-11.15 149.34-10.95 149.34-10.95L149.34-10.95Q149.34-9.4 149.69-8.13 150.04-6.85 150.04-5.5L150.04-5.5Q150.04-3.05 148.57-1.43 147.09 0.2 145.19 0.2ZM190.94-26.75L190.94-26.75Q188.94-26.75 187.66-27.98 186.39-29.2 186.39-31.05L186.39-31.05Q186.39-33.05 187.89-34.5 189.39-35.95 191.54-35.95L191.54-35.95Q193.54-35.95 194.81-34.7 196.09-33.45 196.09-31.6L196.09-31.6Q196.09-29.6 194.59-28.18 193.09-26.75 190.94-26.75ZM187.44 0.2L187.44 0.2Q185.49 0.2 183.94-1.18 182.39-2.55 182.39-5.6L182.39-5.6Q182.39-7.35 182.86-8.88 183.34-10.4 183.96-11.85 184.59-13.3 185.06-14.68 185.54-16.05 185.54-17.4L185.54-17.4Q185.54-18.6 185.14-19.13 184.74-19.65 184.19-19.65L184.19-19.65Q183.34-19.65 182.54-18.55L182.54-18.55 182.19-18.75Q182.39-20.75 183.46-22.18 184.54-23.6 186.11-24.4 187.69-25.2 189.24-25.2L189.24-25.2Q191.14-25.2 192.54-23.98 193.94-22.75 193.94-20L193.94-20Q193.94-18.35 193.46-16.53 192.99-14.7 192.36-12.9 191.74-11.1 191.26-9.55 190.79-8 190.79-6.9L190.79-6.9Q190.79-5.95 191.16-5.55 191.54-5.15 191.99-5.15L191.99-5.15Q192.44-5.15 192.86-5.43 193.29-5.7 193.49-6.05L193.49-6.05 193.84-5.95Q193.84-4.1 192.86-2.73 191.89-1.35 190.44-0.58 188.99 0.2 187.44 0.2ZM203.64 0.15L203.64 0.15Q201.79 0.15 200.29-1.33 198.79-2.8 198.79-5.45L198.79-5.45Q198.79-6.75 199.14-8.4 199.49-10.05 199.91-11.75 200.34-13.45 200.69-14.95 201.04-16.45 201.04-17.4L201.04-17.4Q201.04-18.4 200.64-18.98 200.24-19.55 199.59-19.55L199.59-19.55Q198.74-19.55 197.74-18.55L197.74-18.55 197.44-18.75Q197.39-19.55 197.79-20.65 198.19-21.75 199.01-22.78 199.84-23.8 201.14-24.5 202.44-25.2 204.24-25.2L204.24-25.2Q206.89-25.2 208.16-23.68 209.44-22.15 209.44-19.95L209.44-19.95Q209.44-19.15 209.29-18.4L209.29-18.4Q210.34-19.95 211.89-21.53 213.44-23.1 215.31-24.15 217.19-25.2 219.19-25.2L219.19-25.2Q221.54-25.2 222.39-23.7 223.24-22.2 223.24-19.95L223.24-19.95Q223.24-17.85 222.79-15.45 222.34-13.05 221.89-10.83 221.44-8.6 221.44-7.1L221.44-7.1Q221.44-5.1 222.59-5.1L222.59-5.1Q223.19-5.1 223.64-5.48 224.09-5.85 224.24-6.2L224.24-6.2 224.59-6.05Q224.59-4.2 223.56-2.8 222.54-1.4 220.99-0.63 219.44 0.15 217.84 0.15L217.84 0.15Q215.89 0.15 214.39-1.2 212.89-2.55 212.89-5.6L212.89-5.6Q212.89-7.4 213.36-9.5 213.84-11.6 214.29-13.55 214.74-15.5 214.74-16.75L214.74-16.75Q214.74-17.5 214.46-17.93 214.19-18.35 213.49-18.35L213.49-18.35Q212.34-18.35 210.96-17.3 209.59-16.25 208.61-14.5 207.64-12.75 207.64-10.65L207.64-10.65Q207.64-9.3 207.96-8.05 208.29-6.8 208.29-5.35L208.29-5.35Q208.29-2.65 206.89-1.25 205.49 0.15 203.64 0.15ZM239.38 10L239.38 10Q236.93 10 235.33 8.55 233.73 7.1 233.73 4.45L233.73 4.45Q233.73 1.6 235.73-2.25L235.73-2.25Q235.38-2.15 235.03-2.1 234.68-2.05 234.33-2.05L234.33-2.05Q231.43-2.05 229.46-4.58 227.48-7.1 227.48-11.6L227.48-11.6Q227.48-15.65 229.06-18.75 230.63-21.85 233.08-23.6 235.53-25.35 238.18-25.35L238.18-25.35Q240.03-25.35 241.53-24.43 243.03-23.5 243.98-21.45L243.98-21.45Q244.03-21.95 244.03-22.35 244.03-22.75 244.03-23.1L244.03-23.1Q244.03-23.95 245.33-24.5 246.63-25.05 248.23-25.05L248.23-25.05Q249.68-25.05 250.93-24.5 252.18-23.95 252.58-22.65L252.58-22.65 252.68-22.35Q252.23-21.95 251.91-19.75 251.58-17.55 251.13-13.65L251.13-13.65Q250.83-11.2 250.38-8.08 249.93-4.95 249.16-1.78 248.38 1.4 247.13 4.08 245.88 6.75 243.98 8.38 242.08 10 239.38 10ZM237.73-7.8L237.73-7.8Q239.18-7.8 240.96-10.18 242.73-12.55 243.78-17L243.78-17Q242.88-18.95 241.96-19.78 241.03-20.6 240.08-20.6L240.08-20.6Q238.83-20.6 237.73-19.35 236.63-18.1 235.96-16.18 235.28-14.25 235.28-12.2L235.28-12.2Q235.28-10.1 235.98-8.95 236.68-7.8 237.73-7.8ZM237.13 4.25L237.13 4.25Q238.83 4.25 240.61 0.93 242.38-2.4 243.08-8.45L243.08-8.45Q239.28-3.3 237.81-0.53 236.33 2.25 236.33 3.4L236.33 3.4Q236.33 4.25 237.13 4.25Z" opacity="1" transform="matrix(1,0,0,1,0,0)" fill="#ffdc00" class="wordmark-text-0" data-fill-palette-color="primary" id="text-0"></path></svg></g></svg></g></svg></g></svg></g></svg></g><defs></defs></svg><rect width="395.52" height="73.15432427068862" fill="none" stroke="none" visibility="hidden"></rect></g></svg></g></svg>